# xmcd
#
# Track frame offsets:
#	150
#	14045
#	35590
#	50840
#	76112
#	113587
#	152180
#	205510
#
# Disc length: 3194 seconds
#
# Revision: 1
# Processed by: cddbd v1.4PL0 Copyright (c) Steve Scherf et al.
# Submitted via: audiograbber 1.82.01
#
DISCID=600c7808
DTITLE=Kazem El Saher - Sahra
DYEAR=1900
DGENRE=
TTITLE0=Mawal La ek3edlak 3al Dareb
TTITLE1=Jabar
TTITLE2=Mawal Ha Habibi
TTITLE3=Mawal La Oghniet Ya Leil La Antahi
TTITLE4=Hasna2 3aman
TTITLE5=Mahrous min 3ayn el bachar
TTITLE6=Jareh El Habib
TTITLE7=Enni Khayartouki
EXTD=
EXTT0=
EXTT1=
EXTT2=
EXTT3=
EXTT4=
EXTT5=
EXTT6=
EXTT7=
PLAYORDER=
